<svg width="664" height="524" viewBox="0 0 664 524" fill="none" xmlns="http://www.w3.org/2000/svg">
<g clip-path="url(#clip0_571_2664)">
<g style="mix-blend-mode:darken" opacity="0.37">
<path d="M83.8002 426.337H17.4916C-0.257614 407.882 -4.99761 378.479 5.59012 355.162C15.7013 332.929 37.3919 318.253 50.53 297.684C78.5836 253.837 65.0334 188.375 103.147 152.885C122.197 135.153 149.594 130.02 175.535 127.944C201.476 125.867 228.267 125.932 252.251 115.834C281.876 103.389 304.133 76.6552 334.595 66.5833C368.806 55.2733 409.727 69.3818 429.718 99.3913C442.224 118.168 446.952 141.755 461.738 158.791C485.657 186.325 527.802 188.453 557.633 209.435C567.848 216.711 576.415 226.061 582.776 236.877C589.137 247.692 593.148 259.728 594.549 272.201C597.73 302.249 586.331 336.386 604.338 360.656C613.109 372.482 627.342 379.149 636.797 390.447C646.251 401.744 648.878 411.958 645.916 426.337H83.8002Z" fill="#CFE5F1"/>
</g>
<g style="mix-blend-mode:darken" opacity="0.37">
<path d="M100.751 426.337H34.4295C16.6931 407.882 11.9403 378.479 22.5409 355.162C32.652 332.929 54.3427 318.253 67.4807 297.684C95.5344 253.837 81.9712 188.375 120.084 152.885C139.148 135.153 166.544 130.02 192.473 127.944C218.401 125.867 245.282 125.932 269.201 115.834C298.826 103.389 321.071 76.6552 351.546 66.5833C385.757 55.2733 426.678 69.3818 446.668 99.3913C459.175 118.168 463.889 141.755 478.689 158.791C502.608 186.325 544.753 188.453 574.584 209.435C584.797 216.713 593.363 226.064 599.723 236.878C606.084 247.693 610.097 259.729 611.499 272.201C614.681 302.249 603.282 336.386 621.276 360.656C630.06 372.482 644.293 379.149 653.747 390.447C663.201 401.744 665.816 411.958 662.854 426.337H100.751Z" fill="#68C7FF"/>
</g>
<path d="M253.371 198.989L250.641 199.079H4.03157L3.43908 199.157C0.991798 182.778 13.7434 166.142 29.9084 161.758C43.9996 157.889 60.4866 161.332 72.2851 152.73C82.8599 144.992 85.4875 130.562 92.4043 119.432C96.7356 112.474 102.804 106.766 110.012 102.873C119.028 98.0372 130.221 96.3478 139.444 100.72C155.776 108.457 158.906 130.149 169.829 144.567C172.263 147.791 175.329 150.796 179.231 151.866C182.825 152.859 186.638 152.085 190.321 151.428C202.39 149.3 216.868 149.493 224.377 159.165C227.907 163.731 229.169 169.586 231.127 175.002C233.085 180.418 236.279 186.002 241.714 187.898C244.291 188.814 247.266 188.84 249.559 190.374C252.328 192.257 253.204 195.546 253.371 198.989Z" fill="white"/>
<path d="M650.038 230.172H362.456C361.342 228.534 360.669 226.635 360.505 224.66C360.34 222.685 360.688 220.701 361.516 218.901C363.641 214.194 368.072 210.995 372.49 208.339C376.908 205.682 381.609 203.18 384.919 199.311C391.269 191.716 390.896 180.818 392.3 171.017C393.949 159.41 398.817 147.804 407.602 140.066C411.127 137.005 415.08 134.476 419.336 132.561C431.379 126.951 446.295 125.545 457.552 132.561C468.32 139.318 473.601 152.176 482.991 160.752C485.134 162.906 487.796 164.469 490.719 165.291C499.13 167.226 506.279 159.591 512.616 153.685C521.632 145.315 533.56 139.06 545.719 140.621C560.016 142.478 571.068 154.807 576.49 168.128C578.757 173.7 580.483 179.864 584.991 183.823C596.584 193.972 616.085 182.598 629.571 189.975C634.633 192.747 638.02 197.79 640.725 202.871C645.225 211.433 648.366 220.643 650.038 230.172Z" fill="url(#paint0_linear_571_2664)"/>
<path d="M247.678 389.918H226.992V426.324H176.874V389.918H101.962V352.609L180.095 238.232H226.992V351.964H247.678V389.918ZM176.836 351.964V330.041C176.836 325.922 176.986 320.368 177.287 313.379C177.336 309.702 177.572 306.03 177.995 302.378H176.578C173.763 308.802 170.456 314.997 166.686 320.91L145.871 351.861L176.836 351.964Z" fill="#EA6D4F"/>
<path d="M233.999 389.931H213.3V426.337H163.195V389.931H88.2698V352.622L166.403 238.245H213.3V351.977H233.999V389.931ZM163.157 351.977V330.053C163.157 325.935 163.307 320.381 163.607 313.391C163.908 306.402 164.14 302.735 164.303 302.391H162.938C160.118 308.815 156.807 315.011 153.033 320.923L132.218 351.874L163.157 351.977Z" fill="url(#paint1_linear_571_2664)"/>
<path d="M574.713 391.182L567.513 353.911L554.078 356.491L547.2 357.78L525.638 246.112L479.578 255.036L424.565 382.18L431.637 418.818L505.197 404.568L509.383 426.272H560.428L554.4 395.05L561.278 393.761L574.713 391.182ZM484.55 369.98L467.586 373.256L479.694 344.652L482.141 338.862C484.719 332.338 486.79 325.625 488.336 318.782L489.728 318.524C490.006 322.191 490.471 325.841 491.119 329.46C492.149 336.338 493.055 341.819 493.836 345.903L497.984 367.375L484.55 369.98Z" fill="#EA6D4F"/>
<path d="M561.278 393.787L554.078 356.529L533.766 360.463L512.191 248.794L479.578 255.101L466.143 257.68L411.131 384.837L418.202 421.462L431.637 418.883L491.763 407.276L495.446 426.363H546.492L540.966 397.746L554.4 395.167L561.278 393.787ZM479.706 344.652C479.951 346.058 480.196 347.334 480.415 348.521L484.562 369.993L454.152 375.887L468.719 341.467C471.299 334.948 473.37 328.239 474.915 321.4L476.306 321.129C476.583 324.796 477.047 328.446 477.697 332.065C478.431 336.992 479.101 341.196 479.706 344.652Z" fill="url(#paint2_linear_571_2664)"/>
<path d="M254.672 330.93H224.081L204.67 188.466C204.67 188.466 176.578 157.747 144.338 151.995L175.045 148.655L244.252 150.538L254.672 330.93Z" fill="#005D8D"/>
<path d="M133.918 252.599C133.918 252.599 116.529 278.069 124.258 299.954L156.6 252.599L152.401 246.95L133.918 252.599Z" fill="#333333"/>
<path d="M224.081 330.93L223.038 337.507C223.038 337.507 213.816 338.797 213.3 351.977H237.284L250.306 339.248L251.517 330.93H224.081Z" fill="#333333"/>
<path d="M187.063 188.337L148.718 186.905L154.952 245.699L128.959 255.023L113.979 182.417C112.955 179.246 112.65 175.887 113.084 172.583C113.519 169.279 114.684 166.113 116.493 163.316C118.303 160.519 120.712 158.16 123.545 156.412C126.379 154.663 129.566 153.569 132.875 153.207L144.3 151.918C176.552 157.721 204.67 188.466 204.67 188.466L187.063 188.337Z" fill="#005D8D"/>
<path d="M116.452 24.232V25.973L114.378 26.2439C113.992 25.2838 113.423 24.4079 112.704 23.6646C109.935 21.2788 108.003 19.3831 106.019 20.5437C104.525 21.4078 104.641 25.5217 104.731 27.4561L99.0764 28.1783L48.9844 34.5361V34.4459C52.2302 33.685 54.7548 27.843 54.7548 20.7501C54.7548 13.6571 52.3075 7.98278 49.1261 7.08005L116.439 14.6759V24.2578L116.452 24.232Z" fill="#333333"/>
<path d="M52.7454 10.7297C52.6045 10.9326 52.4755 11.1436 52.359 11.3616C51.8036 12.8335 51.1539 14.2679 50.4141 15.6561C49.7559 16.6085 48.8269 17.3409 47.7478 17.7581C46.5948 18.1291 45.4011 18.3587 44.1928 18.4416C43.3816 18.5184 42.5868 18.7185 41.8357 19.0349C42.2092 12.3417 44.8497 7.13164 48.0956 6.96399L49.1389 7.08006C49.9576 7.40868 50.7002 7.9022 51.3206 8.53C51.941 9.1578 52.426 9.9065 52.7454 10.7297Z" fill="#CFE5F1"/>
<path d="M54.7419 19.6023C53.9176 20.7114 53.5183 22.0913 52.7455 23.2262C51.8376 24.6136 50.4306 25.5974 48.8169 25.9731C47.3743 26.2955 45.8029 26.1149 44.4762 26.7855C43.8107 27.1406 43.2508 27.6656 42.8533 28.3073C42.1267 25.8459 41.7664 23.2908 41.7842 20.7243C41.7842 20.144 41.7842 19.5765 41.8486 19.0091C42.5997 18.6927 43.3945 18.4926 44.2057 18.4159C45.414 18.3329 46.6077 18.1034 47.7607 17.7324C48.8317 17.3198 49.7555 16.5969 50.4141 15.6561C51.1529 14.2763 51.8026 12.8505 52.3591 11.3874C52.4755 11.1694 52.6045 10.9584 52.7455 10.7555C54.0135 13.5349 54.6933 16.547 54.7419 19.6023Z" fill="#CFE5F1"/>
<path d="M54.7677 20.7243C54.7677 27.8172 52.1917 33.6205 48.9973 34.4201C48.7577 34.4826 48.5108 34.513 48.2631 34.5104C45.9962 34.5104 43.9997 32.0472 42.8405 28.3073C43.238 27.6656 43.7979 27.1406 44.4634 26.7855C45.7514 26.1149 47.3615 26.2955 48.8041 25.9731C50.3838 25.5985 51.7639 24.6404 52.6682 23.2906C53.4411 22.1558 53.8404 20.7114 54.6647 19.6668C54.7549 19.9634 54.7677 20.3374 54.7677 20.7243Z" fill="#68C7FF"/>
<path d="M156.124 17.3455H176.333C174.631 17.9488 173.035 18.8194 171.606 19.9247C170.962 20.5179 171.246 21.5883 172.031 22.9811H156.124V17.3455Z" fill="#111023"/>
<path d="M201.012 20.8145V23.0585H190.038C189.196 21.208 188.49 19.2986 187.926 17.3455H201.012V20.8145Z" fill="#111023"/>
<path d="M156.124 22.994V24.245H116.452V16.0172H156.124V17.3584V22.994Z" fill="#68C7FF"/>
<path d="M118.024 38.2761L109.355 44.9305C109.355 44.9305 98.7544 33.8011 99.1794 28.1654L104.834 27.4432C104.705 25.5088 104.589 21.3949 106.122 20.5309C108.106 19.3702 109.986 21.2659 112.807 23.6517C113.526 24.3951 114.095 25.271 114.481 26.231C116.02 30.1317 117.206 34.1629 118.024 38.2761Z" fill="url(#paint3_linear_571_2664)"/>
<path d="M59.263 7.10583C58.6705 5.81621 56.7899 6.91239 57.3695 8.17622C59.1364 11.9732 59.953 16.1439 59.7487 20.3277C59.5445 24.5116 58.3256 28.5826 56.1974 32.189C56.0887 32.4357 56.0746 32.7137 56.1578 32.9701C56.241 33.2265 56.4156 33.4432 56.6482 33.5789C56.8809 33.7145 57.1554 33.7595 57.4191 33.7053C57.6829 33.6512 57.9174 33.5016 58.078 33.2852C60.3798 29.3444 61.6903 24.9025 61.8967 20.3419C62.1032 15.7814 61.1993 11.239 59.263 7.10583Z" fill="#F8C146"/>
<path d="M214.794 47.0713V53.816L206.731 46.1815L214.794 47.0713Z" fill="#EA6D4F"/>
<path d="M214.794 53.8031L222.922 61.5409L230.65 68.8659C230.65 68.8659 248.464 56.3566 255.29 56.2534C255.761 56.2414 256.231 56.2759 256.694 56.3566C262.774 57.2077 266.484 64.2491 265.427 70.9938C264.268 78.2544 264.474 86.3017 257.493 87.6042C250.512 88.9067 219.702 96.3994 219.702 96.3994L185.981 50.6049L189.961 47.8966L198.81 41.6936L200.6 40.4039L204.464 44.0794L206.718 46.2072L214.794 53.8031Z" fill="#EA6D4F"/>
<path d="M236.562 48.4641L256.695 56.3566C256.231 56.2759 255.761 56.2414 255.291 56.2534C248.412 56.3566 230.663 68.8014 230.663 68.8014L222.935 61.4764L236.562 48.4641Z" fill="#EA6D4F"/>
<path d="M257.48 87.6042L245.785 119.484L244.213 150.538C244.213 150.538 242.848 150.783 240.465 151.118C229.311 152.704 195.899 156.522 175.007 148.655L183.147 110.082L179.386 79.6601L133.982 84.6896L105.491 47.8966L109.355 44.9305L118.088 38.276L144.957 64.6617L187.101 46.2201C187.995 46.8747 188.953 47.4365 189.961 47.8966L185.981 50.6693L219.702 96.4639C219.702 96.4639 250.499 88.9196 257.48 87.6042Z" fill="#EA6D4F"/>
<path d="M198.81 41.6291L189.961 47.8967C188.954 47.4447 187.996 46.8916 187.101 46.246C185.862 45.4629 184.805 44.4219 184.002 43.1936C183.2 41.9652 182.671 40.5784 182.452 39.1272C182.078 34.6651 174.543 27.3916 172.083 23.0585C171.297 21.6657 171.014 20.5953 171.658 20.0021C173.087 18.8968 174.683 18.0262 176.385 17.4228C181.061 15.5658 187.295 14.302 187.861 17.1907C187.877 17.2696 187.898 17.3472 187.926 17.4228C188.493 19.3541 189.199 21.2418 190.038 23.0714C193.245 30.4738 198.81 41.6291 198.81 41.6291Z" fill="url(#paint4_linear_571_2664)"/>
<g style="mix-blend-mode:overlay" opacity="0.38">
<path d="M245.798 119.484C194.211 108.509 185.981 50.6049 185.981 50.6049L219.702 96.4252L257.48 87.6042L245.798 119.484Z" fill="#005D8D"/>
</g>
<path d="M236.494 20.1807C236.777 20.0713 237.081 20.0295 237.383 20.0586C237.684 20.0878 237.975 20.1872 238.232 20.3488C238.488 20.5104 238.703 20.7298 238.86 20.9894C239.017 21.2491 239.111 21.5418 239.135 21.8443C240.152 25.8422 235.683 30.6267 235.683 30.6267L236.79 48.3332L223.15 61.3455L228.483 46.0506L215.022 46.9275L206.972 46.0506L204.718 43.8969C204.718 43.8969 203.147 29.2339 203.147 20.6837C203.105 19.1003 203.204 17.5165 203.443 15.9507L203.507 15.5252C212.936 17.1243 226.022 13.436 226.022 13.436C226.022 13.436 227.864 31.3231 230.363 31.6326C232.862 31.9421 233.66 21.9088 233.66 21.9088C234.482 21.1517 235.445 20.5645 236.494 20.1807Z" fill="#FFCEBF"/>
<path d="M236.382 7.31217L236.266 20.3116C235.222 20.6761 234.26 21.2412 233.432 21.9752C233.432 21.9752 232.647 32.0085 230.135 31.699C227.623 31.3895 225.794 13.5024 225.794 13.5024C225.794 13.5024 212.708 17.1907 203.279 15.656C200.563 15.369 198.013 14.2058 196.015 12.3417C188.802 4.73292 191.3 0.412681 201.643 2.77269C211.986 5.1327 233.407 -7.41534 236.382 7.31217Z" fill="#333333"/>
<path d="M228.254 46.1815L222.909 61.4893L214.794 53.816V47.0713L228.254 46.1815Z" fill="#FFCEBF"/>
<path d="M208.322 23.3066C207.358 22.3358 206.189 21.7116 204.948 21.5046C204.169 21.3844 203.848 22.8411 204.639 23.0062C205.265 23.1114 205.874 23.3344 206.443 23.667L204.466 24.4479C203.712 24.7332 204.021 26.1898 204.787 25.9495L208.038 24.6731C208.433 24.4028 208.705 23.682 208.322 23.3066Z" fill="#333333"/>
<g style="mix-blend-mode:multiply" opacity="0.5">
<path d="M608.794 426.337H91.9535C91.9535 426.337 64.1446 444.83 105.491 447.951C146.837 451.072 211.33 454.038 209.732 468.121C208.135 482.203 170.808 479.431 170.808 504.23C170.808 529.029 343.019 523.355 343.019 523.355C343.019 523.355 440.305 524.645 454.152 508.176C467.998 491.708 414.944 476.645 424.527 470.145C434.11 463.646 504.089 483.132 514.51 467.36C524.93 451.588 512.436 441.632 531.653 439.543C550.871 437.453 605.561 445.101 608.794 426.337Z" fill="#CFE5F1"/>
</g>
<path d="M569.715 470.223C591.298 470.223 608.794 465.24 608.794 459.093C608.794 452.947 591.298 447.964 569.715 447.964C548.132 447.964 530.636 452.947 530.636 459.093C530.636 465.24 548.132 470.223 569.715 470.223Z" fill="#005D8D"/>
<path d="M153.664 477.174C172.529 477.174 187.823 473.386 187.823 468.714C187.823 464.041 172.529 460.254 153.664 460.254C134.798 460.254 119.505 464.041 119.505 468.714C119.505 473.386 134.798 477.174 153.664 477.174Z" fill="#005D8D"/>
<path d="M349.447 509.169C370.873 509.169 388.242 505.82 388.242 501.689C388.242 497.558 370.873 494.21 349.447 494.21C328.02 494.21 310.651 497.558 310.651 501.689C310.651 505.82 328.02 509.169 349.447 509.169Z" fill="#005D8D"/>
<path d="M400.749 326.829C392.789 308.611 377.861 297.263 355.964 292.783C353.586 292.293 351.254 291.906 348.97 291.623C329.649 289.172 313.716 293.789 301.171 305.473C287.131 318.524 276.766 341.424 270.077 374.171C265.981 394.247 264.839 411.618 266.651 426.285H314.515C313.914 417.688 315.597 403.691 319.564 384.295C323.857 363.291 328.108 349.105 332.316 341.737C334.763 337.439 337.532 334.614 340.623 333.265C342.888 332.269 345.411 332.025 347.824 332.568C353.955 333.832 357.484 338.823 358.411 347.541C359.339 356.259 357.72 370.831 353.555 391.259C350.43 406.571 347.291 418.251 344.14 426.298H396.589C399.196 418.119 401.346 409.801 403.029 401.382C404.249 395.364 405.21 389.612 405.915 384.127C408.92 360.682 407.198 341.583 400.749 326.829Z" fill="#EA6D4F"/>
<path d="M387.341 324.095C380.196 307.734 367.393 296.914 348.931 291.636C346.862 291.042 344.715 290.518 342.491 290.062C320.002 285.454 301.737 289.684 287.698 302.752C273.658 315.82 263.298 338.737 256.617 371.502C255.252 378.165 254.217 384.54 253.513 390.627C251.927 402.482 251.927 414.495 253.513 426.35H301.312C301.248 426.04 301.209 425.731 301.171 425.408C300.166 417.06 301.789 402.444 306.039 381.561C310.333 360.557 314.588 346.372 318.804 339.003C323.02 331.635 328.172 328.579 334.26 329.834C336.643 330.276 338.82 331.474 340.469 333.252C342.852 335.831 344.333 339.7 344.848 344.794C345.776 353.52 344.157 368.093 339.992 388.512C336.489 405.638 332.972 418.229 329.443 426.285H382.163C385.21 417.243 387.7 408.022 389.621 398.674C396.052 367.173 395.292 342.314 387.341 324.095Z" fill="url(#paint5_linear_571_2664)"/>
<path d="M423.883 201.194L423.561 201.452L389.904 227.67L368.896 244.048L351.404 292.5L346.548 290.759L364.568 240.876L420.727 197.119L423.883 201.194Z" fill="#2A2A2A"/>
<path d="M440.009 309.961C436.145 314.513 430.993 317.699 425.84 320.665L425.493 320.059C427.515 317.48 429.653 314.423 429.048 311.186C428.433 309.017 427.131 307.107 425.338 305.744C422.517 303.255 419.374 301.153 416.682 298.535C413.839 296.032 411.931 292.635 411.273 288.902C410.706 284.001 413.346 279.371 414.377 274.548C414.9 272.632 414.823 270.603 414.158 268.732C412.432 264.631 407.215 263.689 403.081 262.039C399.384 260.543 395.906 257.77 394.876 253.914C393.382 248.317 397.362 242.591 396.821 236.827C396.583 234.821 395.815 232.916 394.597 231.307C393.379 229.697 391.755 228.442 389.891 227.67L423.548 201.439C429.254 206.391 434.174 212.956 434.239 220.448C434.239 225.194 432.345 229.708 430.98 234.247C430.325 236.04 430.096 237.96 430.31 239.857C430.838 242.72 433.118 244.887 435.217 246.911C439.558 251.077 443.925 256.145 443.847 262.168C443.77 268.925 438.013 274.948 439.017 281.628C439.661 285.897 442.946 289.301 444.26 293.402C446.076 299.077 443.834 305.409 440.009 309.961Z" fill="#005D8D"/>
<path d="M212.94 25.0804L211.191 30.9239C211.191 31.0819 211.191 31.1608 211.275 31.3188C211.524 31.7136 212.44 32.5822 214.771 32.1084" stroke="#FFA488" stroke-miterlimit="10" stroke-linecap="round"/>
<path d="M214.095 40.7047C214.095 40.7047 216.428 40.523 218.531 40.9971C220.635 41.4711 220.371 37.5732 217.19 36.5938C214.032 35.731 212.273 40.4152 214.095 40.7047Z" fill="white"/>
<path d="M219.295 23.3503C219.037 24.6385 219.809 25.9267 221.096 25.9267C222.383 26.1843 223.67 25.4114 223.67 24.1232C223.928 22.835 223.155 21.5468 221.869 21.5468C220.839 21.2892 219.552 22.0621 219.295 23.3503Z" fill="#333333"/>
<path d="M224.944 20.2056C224.579 20.2056 224.123 20.0229 223.758 19.8402C223.393 19.6575 222.936 19.4748 222.571 19.2921C222.206 19.1094 221.75 19.0181 221.385 18.8354C220.928 18.6526 220.563 18.5613 220.29 18.2872C220.016 18.0132 220.107 17.5564 220.655 17.2824C221.202 17.0083 222.297 16.8256 223.484 17.3737C224.67 17.9218 225.4 18.744 225.492 19.3835C225.583 19.9316 225.309 20.2056 224.944 20.2056Z" fill="#333333"/>
<path d="M207.57 19.4704C207.219 19.6545 206.689 19.7091 206.246 19.7177C205.803 19.7262 205.272 19.7808 204.829 19.7894C204.386 19.798 203.901 19.9403 203.459 19.9489C202.928 20.0035 202.531 20.0999 202.13 19.9746C201.729 19.8493 201.586 19.3644 201.975 18.8248C202.364 18.2852 203.325 17.5572 204.741 17.4854C206.158 17.4137 207.273 17.8355 207.683 18.404C208.046 18.8847 207.921 19.2862 207.57 19.4704Z" fill="#333333"/>
</g>
<defs>
<linearGradient id="paint0_linear_571_2664" x1="154057" y1="23453.8" x2="154155" y2="19187" gradientUnits="userSpaceOnUse">
<stop stop-color="#F9E6D9"/>
<stop offset="0.12" stop-color="#FCF1EA"/>
<stop offset="0.27" stop-color="#FEF9F6"/>
<stop offset="0.48" stop-color="#FFFEFD"/>
<stop offset="1" stop-color="white"/>
</linearGradient>
<linearGradient id="paint1_linear_571_2664" x1="38740.1" y1="72286.8" x2="38477.9" y2="61942.5" gradientUnits="userSpaceOnUse">
<stop stop-color="#F9E6D9"/>
<stop offset="0.12" stop-color="#FCF1EA"/>
<stop offset="0.27" stop-color="#FEF9F6"/>
<stop offset="0.48" stop-color="#FFFEFD"/>
<stop offset="1" stop-color="white"/>
</linearGradient>
<linearGradient id="paint2_linear_571_2664" x1="78071.9" y1="67389.1" x2="77845.1" y2="57622.6" gradientUnits="userSpaceOnUse">
<stop stop-color="#F9E6D9"/>
<stop offset="0.12" stop-color="#FCF1EA"/>
<stop offset="0.27" stop-color="#FEF9F6"/>
<stop offset="0.48" stop-color="#FFFEFD"/>
<stop offset="1" stop-color="white"/>
</linearGradient>
<linearGradient id="paint3_linear_571_2664" x1="99.1022" y1="32.5501" x2="118.024" y2="32.5501" gradientUnits="userSpaceOnUse">
<stop stop-color="#FFCEBF"/>
<stop offset="0.33" stop-color="#FFCEBF"/>
<stop offset="0.54" stop-color="#FFCEBF"/>
<stop offset="0.73" stop-color="#FFCEBF"/>
<stop offset="0.89" stop-color="#FFCEBF"/>
<stop offset="1" stop-color="#FFCEBF"/>
</linearGradient>
<linearGradient id="paint4_linear_571_2664" x1="7655.9" y1="2199.42" x2="8243.46" y2="2199.42" gradientUnits="userSpaceOnUse">
<stop stop-color="#FFCEBF"/>
<stop offset="0.33" stop-color="#F7BC83"/>
<stop offset="0.54" stop-color="#F7B67B"/>
<stop offset="0.73" stop-color="#F7AC6C"/>
<stop offset="0.89" stop-color="#F79E57"/>
<stop offset="1" stop-color="#F79244"/>
</linearGradient>
<linearGradient id="paint5_linear_571_2664" x1="55589.6" y1="52843.8" x2="55444.2" y2="45247.3" gradientUnits="userSpaceOnUse">
<stop stop-color="#F9E6D9"/>
<stop offset="0.12" stop-color="#FCF1EA"/>
<stop offset="0.27" stop-color="#FEF9F6"/>
<stop offset="0.48" stop-color="#FFFEFD"/>
<stop offset="1" stop-color="white"/>
</linearGradient>
<clipPath id="clip0_571_2664">
<rect width="664" height="524" fill="white"/>
</clipPath>
</defs>
</svg>
